# xmcd CD database file
#
# Track frame offsets:
#	150
#	9810
#	21037
#	33027
#	48977
#	56605
#	69267
#	77180
#	87950
#	99340
#	106517
#	123010
#	133867
#	143657
#	156455
#	165382
#	177825
#	187902
#	195957
#	210015
#	218747
#	231720
#	241390
#	252202
#	267677
#	277882
#	291042
#	299842
#	310305
#	319902
#	329120
#	337400
#
# Disc length: 4603 seconds
#
# Revision: 3
# Processed by: cddbd v1.5.2PL0 Copyright (c) Steve Scherf et al.
# Submitted via: CDex 1.70beta2
#
DISCID=ca11f920
DTITLE=Marko Cermak - Banjo z mlznych lesu
DYEAR=1998
DGENRE=Country
TTITLE0=Banjo z mlznych hor
TTITLE1=Blues Folsomske veznice
TTITLE2=Jizni vitr
TTITLE3=Zatracenej zivot
TTITLE4=Kamarad
TTITLE5=Den se chyli
TTITLE6=Lodni zvon zvoni
TTITLE7=Duel
TTITLE8=Na slunecne strane hor
TTITLE9=Vyju na mesic
TTITLE10=Pres plane
TTITLE11=Rovnou tady rovnou
TTITLE12=Kralovstvi za kone
TTITLE13=Je vsechno O.K.
TTITLE14=Psi pisen
TTITLE15=Bluegrassovy part c.1
TTITLE16=Cerna a bila noc
TTITLE17=Boty po stryci
TTITLE18=Zatoka
TTITLE19=Sneznej muz
TTITLE20=Vltavska marina
TTITLE21=Sest dni na silnici
TTITLE22=Uz te vlak privazi
TTITLE23=Cervena reka
TTITLE24=Tak ja jdu dal
TTITLE25=Vlak ma zelenou
TTITLE26=Step hori
TTITLE27=Oci pali a silnice je jak klin cernej
TTITLE28=Ja v posledni dobe
TTITLE29=Jizni vlak
TTITLE30=Hardy
TTITLE31=Vlak na Flint Hill
EXTD=YEAR: 1998
EXTT0=
EXTT1=
EXTT2=
EXTT3=
EXTT4=
EXTT5=
EXTT6=
EXTT7=
EXTT8=
EXTT9=
EXTT10=
EXTT11=
EXTT12=
EXTT13=
EXTT14=
EXTT15=
EXTT16=
EXTT17=
EXTT18=
EXTT19=
EXTT20=
EXTT21=
EXTT22=
EXTT23=
EXTT24=
EXTT25=
EXTT26=
EXTT27=
EXTT28=
EXTT29=
EXTT30=
EXTT31=
PLAYORDER=
